<?xml version="1.0" encoding="UTF-8" standalone="no"?>
<!DOCTYPE svg PUBLIC "-//W3C//DTD SVG 1.1//EN"
 "http://www.w3.org/Graphics/SVG/1.1/DTD/svg11.dtd">
<!-- Generated by graphviz version 15.0.0 (20260523.1842)
 -->
<!-- Pages: 1 -->
<svg width="890pt" height="455pt"
 viewBox="0.00 0.00 890.00 455.00" xmlns="http://www.w3.org/2000/svg" xmlns:xlink="http://www.w3.org/1999/xlink">
<g id="graph0" class="graph" transform="scale(1 1) rotate(0) translate(4 450.5)">
<polygon fill="white" stroke="none" points="-4,4 -4,-450.5 886,-450.5 886,4 -4,4"/>
<g id="clust1" class="cluster">
<title>cluster_origin</title>
<polygon fill="none" stroke="black" points="8,-44 8,-161 408,-161 408,-44 8,-44"/>
<text xml:space="preserve" text-anchor="middle" x="383.88" y="-51.2" font-family="Times,serif" font-size="14.00">origin</text>
</g>
<g id="clust2" class="cluster">
<title>cluster_destin</title>
<polygon fill="none" stroke="black" points="16,-76.5 16,-153 116,-153 116,-76.5 16,-76.5"/>
<text xml:space="preserve" text-anchor="middle" x="91.88" y="-83.7" font-family="Times,serif" font-size="14.00">destin</text>
</g>
<g id="clust3" class="cluster">
<title>cluster_hour_of_week</title>
<polygon fill="none" stroke="black" points="124,-76.5 124,-153 278,-153 278,-76.5 124,-76.5"/>
<text xml:space="preserve" text-anchor="middle" x="231" y="-83.7" font-family="Times,serif" font-size="14.00">hour_of_week</text>
</g>
<g id="clust4" class="cluster">
<title>cluster_destin__CLONE</title>
<polygon fill="none" stroke="black" points="416,-44 416,-253.5 874,-253.5 874,-44 416,-44"/>
<text xml:space="preserve" text-anchor="middle" x="849.88" y="-51.2" font-family="Times,serif" font-size="14.00">destin</text>
</g>
<g id="clust5" class="cluster">
<title>cluster_time</title>
<polygon fill="none" stroke="black" points="424,-76.5 424,-245.5 582,-245.5 582,-76.5 424,-76.5"/>
<text xml:space="preserve" text-anchor="middle" x="561.62" y="-83.7" font-family="Times,serif" font-size="14.00">time</text>
</g>
<g id="clust6" class="cluster">
<title>cluster_hour_of_week__CLONE</title>
<polygon fill="none" stroke="black" points="590,-169 590,-245.5 744,-245.5 744,-169 590,-169"/>
<text xml:space="preserve" text-anchor="middle" x="697" y="-176.2" font-family="Times,serif" font-size="14.00">hour_of_week</text>
</g>
<!-- drift_scale -->
<g id="node1" class="node">
<title>drift_scale</title>
<ellipse fill="white" stroke="black" cx="366" cy="-360" rx="49.82" ry="18"/>
<text xml:space="preserve" text-anchor="middle" x="366" y="-354.95" font-family="Times,serif" font-size="14.00">drift_scale</text>
</g>
<!-- drift_decentered -->
<g id="node8" class="node">
<title>drift_decentered</title>
<ellipse fill="white" stroke="black" cx="503" cy="-219.5" rx="71.31" ry="18"/>
<text xml:space="preserve" text-anchor="middle" x="503" y="-214.45" font-family="Times,serif" font-size="14.00">drift_decentered</text>
</g>
<!-- drift_scale&#45;&gt;drift_decentered -->
<g id="edge1" class="edge">
<title>drift_scale&#45;&gt;drift_decentered</title>
<path fill="none" stroke="black" d="M375.25,-341.88C385.7,-323.57 404.01,-294.34 425,-273.5 436.78,-261.8 451.46,-251.06 464.9,-242.35"/>
<polygon fill="black" stroke="black" points="466.52,-245.46 473.13,-237.18 462.8,-239.54 466.52,-245.46"/>
</g>
<!-- drift -->
<g id="node9" class="node">
<title>drift</title>
<ellipse fill="white" stroke="black" stroke-dasharray="5,2" cx="459" cy="-127" rx="27" ry="18"/>
<text xml:space="preserve" text-anchor="middle" x="459" y="-121.95" font-family="Times,serif" font-size="14.00">drift</text>
</g>
<!-- drift_scale&#45;&gt;drift -->
<g id="edge3" class="edge">
<title>drift_scale&#45;&gt;drift</title>
<path fill="none" stroke="black" d="M366.41,-341.63C367.96,-306.47 375.36,-225.4 410,-169 415.26,-160.44 422.93,-152.81 430.64,-146.51"/>
<polygon fill="black" stroke="black" points="432.5,-149.5 438.38,-140.68 428.29,-143.91 432.5,-149.5"/>
</g>
<!-- destin_centered -->
<g id="node2" class="node">
<title>destin_centered</title>
<ellipse fill="white" stroke="black" cx="503" cy="-360" rx="68.75" ry="18"/>
<text xml:space="preserve" text-anchor="middle" x="503" y="-354.95" font-family="Times,serif" font-size="14.00">destin_centered</text>
</g>
<!-- destin_centered&#45;&gt;drift_decentered -->
<g id="edge2" class="edge">
<title>destin_centered&#45;&gt;drift_decentered</title>
<path fill="none" stroke="black" d="M503,-341.74C503,-318.62 503,-277.28 503,-249.38"/>
<polygon fill="black" stroke="black" points="506.5,-249.49 503,-239.49 499.5,-249.49 506.5,-249.49"/>
</g>
<!-- destin_centered&#45;&gt;drift -->
<g id="edge4" class="edge">
<title>destin_centered&#45;&gt;drift</title>
<path fill="none" stroke="black" d="M484.8,-342.46C465.19,-323.29 435.16,-289.67 423,-253.5 411.03,-217.9 409.76,-204.14 423,-169 425.63,-162.02 430.05,-155.45 434.91,-149.71"/>
<polygon fill="black" stroke="black" points="437.37,-152.2 441.67,-142.52 432.27,-147.4 437.37,-152.2"/>
</g>
<!-- obs -->
<g id="node3" class="node">
<title>obs</title>
<ellipse fill="grey" stroke="black" cx="401" cy="-18" rx="27" ry="18"/>
<text xml:space="preserve" text-anchor="middle" x="401" y="-12.95" font-family="Times,serif" font-size="14.00">obs</text>
</g>
<!-- origin_seasonal -->
<g id="node4" class="node">
<title>origin_seasonal</title>
<ellipse fill="white" stroke="black" cx="201" cy="-127" rx="68.75" ry="18"/>
<text xml:space="preserve" text-anchor="middle" x="201" y="-121.95" font-family="Times,serif" font-size="14.00">origin_seasonal</text>
</g>
<!-- origin_seasonal&#45;&gt;obs -->
<g id="edge6" class="edge">
<title>origin_seasonal&#45;&gt;obs</title>
<path fill="none" stroke="black" d="M211.31,-108.88C223.72,-89.87 246.36,-59.78 274,-44 300.99,-28.59 335.89,-22.53 362.27,-20.22"/>
<polygon fill="black" stroke="black" points="362.5,-23.71 372.23,-19.51 362,-16.73 362.5,-23.71"/>
</g>
<!-- pairwise -->
<g id="node5" class="node">
<title>pairwise</title>
<ellipse fill="white" stroke="black" cx="66" cy="-127" rx="42.14" ry="18"/>
<text xml:space="preserve" text-anchor="middle" x="66" y="-121.95" font-family="Times,serif" font-size="14.00">pairwise</text>
</g>
<!-- pairwise&#45;&gt;obs -->
<g id="edge9" class="edge">
<title>pairwise&#45;&gt;obs</title>
<path fill="none" stroke="black" d="M72.04,-108.8C79.84,-89.41 95.42,-58.69 120,-44 159.86,-20.18 294.83,-17.93 362.15,-18.37"/>
<polygon fill="black" stroke="black" points="361.97,-21.87 372,-18.46 362.03,-14.87 361.97,-21.87"/>
</g>
<!-- origin_scale -->
<g id="node6" class="node">
<title>origin_scale</title>
<ellipse fill="white" stroke="black" cx="344" cy="-127" rx="55.96" ry="18"/>
<text xml:space="preserve" text-anchor="middle" x="344" y="-121.95" font-family="Times,serif" font-size="14.00">origin_scale</text>
</g>
<!-- origin_scale&#45;&gt;obs -->
<g id="edge10" class="edge">
<title>origin_scale&#45;&gt;obs</title>
<path fill="none" stroke="black" d="M353.16,-108.81C362.28,-91.68 376.41,-65.16 386.95,-45.37"/>
<polygon fill="black" stroke="black" points="389.91,-47.25 391.53,-36.78 383.74,-43.96 389.91,-47.25"/>
</g>
<!-- destin_seasonal -->
<g id="node7" class="node">
<title>destin_seasonal</title>
<ellipse fill="white" stroke="black" cx="667" cy="-219.5" rx="68.75" ry="18"/>
<text xml:space="preserve" text-anchor="middle" x="667" y="-214.45" font-family="Times,serif" font-size="14.00">destin_seasonal</text>
</g>
<!-- destin_seasonal&#45;&gt;obs -->
<g id="edge7" class="edge">
<title>destin_seasonal&#45;&gt;obs</title>
<path fill="none" stroke="black" d="M660.15,-201.39C643.22,-159.43 599.74,-54.13 586,-44 563.45,-27.38 487.01,-21.81 439.74,-19.94"/>
<polygon fill="black" stroke="black" points="440.02,-16.45 429.91,-19.59 439.78,-23.44 440.02,-16.45"/>
</g>
<!-- drift_decentered&#45;&gt;drift -->
<g id="edge5" class="edge">
<title>drift_decentered&#45;&gt;drift</title>
<path fill="none" stroke="black" d="M494.72,-201.48C488.35,-188.38 479.43,-170.02 472.09,-154.93"/>
<polygon fill="black" stroke="black" points="475.27,-153.46 467.75,-146 468.98,-156.53 475.27,-153.46"/>
</g>
<!-- drift&#45;&gt;obs -->
<g id="edge8" class="edge">
<title>drift&#45;&gt;obs</title>
<path fill="none" stroke="black" d="M450.19,-109.75C440.95,-92.7 426.28,-65.64 415.36,-45.49"/>
<polygon fill="black" stroke="black" points="418.46,-43.86 410.61,-36.73 412.3,-47.19 418.46,-43.86"/>
</g>
<!-- destin_scale -->
<g id="node10" class="node">
<title>destin_scale</title>
<ellipse fill="white" stroke="black" cx="810" cy="-219.5" rx="55.96" ry="18"/>
<text xml:space="preserve" text-anchor="middle" x="810" y="-214.45" font-family="Times,serif" font-size="14.00">destin_scale</text>
</g>
<!-- destin_scale&#45;&gt;obs -->
<g id="edge11" class="edge">
<title>destin_scale&#45;&gt;obs</title>
<path fill="none" stroke="black" d="M798.58,-201.61C773.07,-165.43 707.46,-80.76 629,-44 596.26,-28.66 495.25,-22.5 439.3,-20.22"/>
<polygon fill="black" stroke="black" points="439.72,-16.73 429.59,-19.85 439.45,-23.73 439.72,-16.73"/>
</g>
<!-- distribution_description_node -->
<g id="node11" class="node">
<title>distribution_description_node</title>
<text xml:space="preserve" text-anchor="start" x="597.5" y="-429.2" font-family="Times,serif" font-size="14.00">drift_scale ~ LogNormal</text>
<text xml:space="preserve" text-anchor="start" x="597.5" y="-412.7" font-family="Times,serif" font-size="14.00">destin_centered ~ Uniform</text>
<text xml:space="preserve" text-anchor="start" x="597.5" y="-396.2" font-family="Times,serif" font-size="14.00">origin_seasonal ~ Normal</text>
<text xml:space="preserve" text-anchor="start" x="597.5" y="-379.7" font-family="Times,serif" font-size="14.00">destin_seasonal ~ Normal</text>
<text xml:space="preserve" text-anchor="start" x="597.5" y="-363.2" font-family="Times,serif" font-size="14.00">drift_decentered ~ Normal</text>
<text xml:space="preserve" text-anchor="start" x="597.5" y="-346.7" font-family="Times,serif" font-size="14.00">drift ~ Deterministic</text>
<text xml:space="preserve" text-anchor="start" x="597.5" y="-330.2" font-family="Times,serif" font-size="14.00">pairwise ~ Normal</text>
<text xml:space="preserve" text-anchor="start" x="597.5" y="-313.7" font-family="Times,serif" font-size="14.00">origin_scale ~ LogNormal</text>
<text xml:space="preserve" text-anchor="start" x="597.5" y="-297.2" font-family="Times,serif" font-size="14.00">destin_scale ~ LogNormal</text>
<text xml:space="preserve" text-anchor="start" x="597.5" y="-280.7" font-family="Times,serif" font-size="14.00">obs ~ Normal</text>
</g>
</g>
</svg>
