<?xml version="1.0" encoding="UTF-8" standalone="no"?>
<!DOCTYPE svg PUBLIC "-//W3C//DTD SVG 1.1//EN"
 "http://www.w3.org/Graphics/SVG/1.1/DTD/svg11.dtd">
<!-- Generated by graphviz version 15.1.1 (20260805.0921)
 -->
<!-- Pages: 1 -->
<svg width="1642pt" height="795pt"
 viewBox="0.00 0.00 1642.00 795.00" xmlns="http://www.w3.org/2000/svg" xmlns:xlink="http://www.w3.org/1999/xlink">
<g id="graph0" class="graph" transform="scale(1 1) rotate(0) translate(4 790.5)">
<polygon fill="white" stroke="none" points="-4,4 -4,-790.5 1638.34,-790.5 1638.34,4 -4,4"/>
<g id="clust1" class="cluster">
<title>cluster_product</title>
<polygon fill="none" stroke="black" points="318.31,-245.5 318.31,-362.5 1344.31,-362.5 1344.31,-245.5 318.31,-245.5"/>
<text xml:space="preserve" text-anchor="middle" x="1315.68" y="-252.7" font-family="Times,serif" font-size="14.00">product</text>
</g>
<g id="clust2" class="cluster">
<title>cluster_fourier</title>
<polygon fill="none" stroke="black" points="978.31,-278 978.31,-354.5 1062.31,-354.5 1062.31,-278 978.31,-278"/>
<text xml:space="preserve" text-anchor="middle" x="1035.93" y="-285.2" font-family="Times,serif" font-size="14.00">fourier</text>
</g>
<g id="clust3" class="cluster">
<title>cluster_pair</title>
<polygon fill="none" stroke="black" points="32.31,-153 32.31,-354.5 278.31,-354.5 278.31,-153 32.31,-153"/>
<text xml:space="preserve" text-anchor="middle" x="259.81" y="-160.2" font-family="Times,serif" font-size="14.00">pair</text>
</g>
<g id="clust4" class="cluster">
<title>cluster_series</title>
<polygon fill="none" stroke="black" points="1005.31,-44 1005.31,-237.5 1520.31,-237.5 1520.31,-44 1005.31,-44"/>
<text xml:space="preserve" text-anchor="middle" x="1496.93" y="-51.2" font-family="Times,serif" font-size="14.00">series</text>
</g>
<g id="clust5" class="cluster">
<title>cluster_time</title>
<polygon fill="none" stroke="black" points="1090.31,-76.5 1090.31,-229.5 1248.31,-229.5 1248.31,-76.5 1090.31,-76.5"/>
<text xml:space="preserve" text-anchor="middle" x="1227.93" y="-83.7" font-family="Times,serif" font-size="14.00">time</text>
</g>
<!-- centered_eps -->
<g id="node1" class="node">
<title>centered_eps</title>
<ellipse fill="white" stroke="black" cx="1575.31" cy="-328.5" rx="59.03" ry="18"/>
<text xml:space="preserve" text-anchor="middle" x="1575.31" y="-323.45" font-family="Times,serif" font-size="14.00">centered_eps</text>
</g>
<!-- eps_decentered -->
<g id="node23" class="node">
<title>eps_decentered</title>
<ellipse fill="white" stroke="black" cx="1444.31" cy="-203.5" rx="67.73" ry="18"/>
<text xml:space="preserve" text-anchor="middle" x="1444.31" y="-198.45" font-family="Times,serif" font-size="14.00">eps_decentered</text>
</g>
<!-- centered_eps&#45;&gt;eps_decentered -->
<g id="edge3" class="edge">
<title>centered_eps&#45;&gt;eps_decentered</title>
<path fill="none" stroke="black" d="M1562.32,-310.77C1548.45,-293.45 1525.33,-266.08 1502.31,-245.5 1495.04,-239 1486.73,-232.61 1478.71,-226.87"/>
<polygon fill="black" stroke="black" points="1480.97,-224.18 1470.76,-221.34 1476.97,-229.92 1480.97,-224.18"/>
</g>
<!-- eps -->
<g id="node24" class="node">
<title>eps</title>
<ellipse fill="white" stroke="black" stroke-dasharray="5,2" cx="1444.31" cy="-127" rx="27" ry="18"/>
<text xml:space="preserve" text-anchor="middle" x="1444.31" y="-121.95" font-family="Times,serif" font-size="14.00">eps</text>
</g>
<!-- centered_eps&#45;&gt;eps -->
<g id="edge6" class="edge">
<title>centered_eps&#45;&gt;eps</title>
<path fill="none" stroke="black" d="M1577.69,-310.23C1581.42,-275.55 1584.46,-196.96 1543.31,-153 1527.94,-136.59 1503.51,-130.3 1482.76,-128.14"/>
<polygon fill="black" stroke="black" points="1483.11,-124.65 1472.89,-127.41 1482.6,-131.63 1483.11,-124.65"/>
</g>
<!-- centered_gamma -->
<g id="node2" class="node">
<title>centered_gamma</title>
<ellipse fill="white" stroke="black" cx="82.31" cy="-584.5" rx="74.89" ry="18"/>
<text xml:space="preserve" text-anchor="middle" x="82.31" y="-579.45" font-family="Times,serif" font-size="14.00">centered_gamma</text>
</g>
<!-- gamma_offdiag_decentered -->
<g id="node17" class="node">
<title>gamma_offdiag_decentered</title>
<ellipse fill="white" stroke="black" cx="155.31" cy="-328.5" rx="114.82" ry="18"/>
<text xml:space="preserve" text-anchor="middle" x="155.31" y="-323.45" font-family="Times,serif" font-size="14.00">gamma_offdiag_decentered</text>
</g>
<!-- centered_gamma&#45;&gt;gamma_offdiag_decentered -->
<g id="edge10" class="edge">
<title>centered_gamma&#45;&gt;gamma_offdiag_decentered</title>
<path fill="none" stroke="black" d="M87.32,-566.04C99.75,-522.8 132.05,-410.41 147.22,-357.64"/>
<polygon fill="black" stroke="black" points="150.53,-358.78 149.93,-348.2 143.81,-356.84 150.53,-358.78"/>
</g>
<!-- gamma_offdiag -->
<g id="node18" class="node">
<title>gamma_offdiag</title>
<ellipse fill="white" stroke="black" stroke-dasharray="5,2" cx="177.31" cy="-203.5" rx="70.29" ry="18"/>
<text xml:space="preserve" text-anchor="middle" x="177.31" y="-198.45" font-family="Times,serif" font-size="14.00">gamma_offdiag</text>
</g>
<!-- centered_gamma&#45;&gt;gamma_offdiag -->
<g id="edge12" class="edge">
<title>centered_gamma&#45;&gt;gamma_offdiag</title>
<path fill="none" stroke="black" d="M71.79,-566.24C40.56,-512.55 -44.86,-346.01 31.31,-245.5 41.02,-232.68 74.72,-222.76 107.3,-215.89"/>
<polygon fill="black" stroke="black" points="107.68,-219.38 116.79,-213.97 106.29,-212.52 107.68,-219.38"/>
</g>
<!-- eps_scale -->
<g id="node3" class="node">
<title>eps_scale</title>
<ellipse fill="white" stroke="black" cx="1447.31" cy="-328.5" rx="46.23" ry="18"/>
<text xml:space="preserve" text-anchor="middle" x="1447.31" y="-323.45" font-family="Times,serif" font-size="14.00">eps_scale</text>
</g>
<!-- eps_scale&#45;&gt;eps_decentered -->
<g id="edge5" class="edge">
<title>eps_scale&#45;&gt;eps_decentered</title>
<path fill="none" stroke="black" d="M1446.88,-310.14C1446.4,-290.18 1445.59,-257.1 1445.01,-233.27"/>
<polygon fill="black" stroke="black" points="1448.51,-233.2 1444.77,-223.29 1441.51,-233.37 1448.51,-233.2"/>
</g>
<!-- eps_scale&#45;&gt;eps -->
<g id="edge8" class="edge">
<title>eps_scale&#45;&gt;eps</title>
<path fill="none" stroke="black" d="M1456.82,-310.48C1467.4,-292.66 1485.86,-264.66 1507.31,-245.5 1512.65,-240.73 1517.71,-243.7 1521.31,-237.5 1540.16,-205.02 1543.39,-183.38 1521.31,-153 1512.29,-140.59 1496.96,-134.21 1482.34,-130.99"/>
<polygon fill="black" stroke="black" points="1483.36,-127.61 1472.91,-129.35 1482.16,-134.51 1483.36,-127.61"/>
</g>
<!-- cross_scale -->
<g id="node4" class="node">
<title>cross_scale</title>
<ellipse fill="white" stroke="black" cx="263.31" cy="-584.5" rx="52.89" ry="18"/>
<text xml:space="preserve" text-anchor="middle" x="263.31" y="-579.45" font-family="Times,serif" font-size="14.00">cross_scale</text>
</g>
<!-- cross_scale&#45;&gt;gamma_offdiag_decentered -->
<g id="edge11" class="edge">
<title>cross_scale&#45;&gt;gamma_offdiag_decentered</title>
<path fill="none" stroke="black" d="M256.05,-566.44C237.73,-523.34 189.45,-409.79 167.04,-357.09"/>
<polygon fill="black" stroke="black" points="170.4,-356.05 163.26,-348.21 163.96,-358.79 170.4,-356.05"/>
</g>
<!-- cross_scale&#45;&gt;gamma_offdiag -->
<g id="edge13" class="edge">
<title>cross_scale&#45;&gt;gamma_offdiag</title>
<path fill="none" stroke="black" d="M270.59,-566.5C292.04,-513.54 349.21,-348.93 279.31,-245.5 271,-233.21 258.35,-224.61 244.74,-218.58"/>
<polygon fill="black" stroke="black" points="246.21,-215.4 235.62,-215.01 243.65,-221.92 246.21,-215.4"/>
</g>
<!-- gamma -->
<g id="node5" class="node">
<title>gamma</title>
<ellipse fill="white" stroke="black" stroke-dasharray="5,2" cx="289.31" cy="-127" rx="39.07" ry="18"/>
<text xml:space="preserve" text-anchor="middle" x="289.31" y="-121.95" font-family="Times,serif" font-size="14.00">gamma</text>
</g>
<!-- obs -->
<g id="node6" class="node">
<title>obs</title>
<ellipse fill="grey" stroke="black" cx="833.31" cy="-18" rx="27" ry="18"/>
<text xml:space="preserve" text-anchor="middle" x="833.31" y="-12.95" font-family="Times,serif" font-size="14.00">obs</text>
</g>
<!-- gamma&#45;&gt;obs -->
<g id="edge20" class="edge">
<title>gamma&#45;&gt;obs</title>
<path fill="none" stroke="black" d="M310.11,-111.59C339.25,-92.26 394.61,-58.68 447.31,-44 511.81,-26.03 710.03,-20.89 794.51,-19.49"/>
<polygon fill="black" stroke="black" points="794.43,-22.99 804.37,-19.34 794.32,-15.99 794.43,-22.99"/>
</g>
<!-- beta_s -->
<g id="node7" class="node">
<title>beta_s</title>
<ellipse fill="white" stroke="black" cx="1020.31" cy="-328.5" rx="34.46" ry="18"/>
<text xml:space="preserve" text-anchor="middle" x="1020.31" y="-323.45" font-family="Times,serif" font-size="14.00">beta_s</text>
</g>
<!-- beta_s&#45;&gt;obs -->
<g id="edge18" class="edge">
<title>beta_s&#45;&gt;obs</title>
<path fill="none" stroke="black" d="M1017.49,-310.13C1013.37,-290.9 1003.72,-260.6 982.31,-245.5 966.44,-234.31 909.97,-250.22 895.31,-237.5 831.14,-181.84 879.71,-129.61 848.66,-45.16"/>
<polygon fill="black" stroke="black" points="852,-44.08 845.03,-36.1 845.5,-46.69 852,-44.08"/>
</g>
<!-- eps_prod -->
<g id="node8" class="node">
<title>eps_prod</title>
<ellipse fill="white" stroke="black" cx="1291.31" cy="-328.5" rx="44.7" ry="18"/>
<text xml:space="preserve" text-anchor="middle" x="1291.31" y="-323.45" font-family="Times,serif" font-size="14.00">eps_prod</text>
</g>
<!-- eps_prod&#45;&gt;eps_decentered -->
<g id="edge4" class="edge">
<title>eps_prod&#45;&gt;eps_decentered</title>
<path fill="none" stroke="black" d="M1310.23,-312C1330.47,-295.45 1363.56,-268.5 1392.31,-245.5 1399.5,-239.74 1407.29,-233.57 1414.59,-227.81"/>
<polygon fill="black" stroke="black" points="1416.62,-230.67 1422.32,-221.73 1412.29,-225.17 1416.62,-230.67"/>
</g>
<!-- eps_prod&#45;&gt;eps -->
<g id="edge7" class="edge">
<title>eps_prod&#45;&gt;eps</title>
<path fill="none" stroke="black" d="M1285.54,-310.41C1277.92,-290.82 1262.43,-259.6 1237.31,-245.5 1214.72,-232.82 1022.31,-256.13 1004.31,-237.5 978.21,-210.49 978.18,-179.98 1004.31,-153 1013.9,-143.1 1238.55,-145.83 1252.31,-145 1305.89,-141.77 1367.7,-135.91 1406.4,-131.99"/>
<polygon fill="black" stroke="black" points="1406.53,-135.49 1416.12,-130.99 1405.82,-128.53 1406.53,-135.49"/>
</g>
<!-- b_feat -->
<g id="node9" class="node">
<title>b_feat</title>
<ellipse fill="white" stroke="black" cx="1106.31" cy="-328.5" rx="33.95" ry="18"/>
<text xml:space="preserve" text-anchor="middle" x="1106.31" y="-323.45" font-family="Times,serif" font-size="14.00">b_feat</text>
</g>
<!-- b_feat&#45;&gt;obs -->
<g id="edge21" class="edge">
<title>b_feat&#45;&gt;obs</title>
<path fill="none" stroke="black" d="M1103.22,-310.33C1098.75,-290.97 1088.44,-260.27 1066.31,-245.5 1041.68,-229.06 956.78,-255.55 933.31,-237.5 861.51,-182.27 923.52,-116.57 869.31,-44 867.39,-41.43 865.12,-39.03 862.68,-36.81"/>
<polygon fill="black" stroke="black" points="865.15,-34.3 855.11,-30.91 860.85,-39.82 865.15,-34.3"/>
</g>
<!-- b_disp -->
<g id="node10" class="node">
<title>b_disp</title>
<ellipse fill="white" stroke="black" cx="1193.31" cy="-328.5" rx="35.49" ry="18"/>
<text xml:space="preserve" text-anchor="middle" x="1193.31" y="-323.45" font-family="Times,serif" font-size="14.00">b_disp</text>
</g>
<!-- b_disp&#45;&gt;obs -->
<g id="edge22" class="edge">
<title>b_disp&#45;&gt;obs</title>
<path fill="none" stroke="black" d="M1189.42,-310.23C1184.04,-290.77 1172.26,-259.98 1149.31,-245.5 1117.51,-225.44 1011.25,-258.86 980.31,-237.5 903.16,-184.23 963.65,-109.23 896.31,-44 888.88,-36.8 879.12,-31.6 869.51,-27.87"/>
<polygon fill="black" stroke="black" points="870.88,-24.64 860.29,-24.75 868.64,-31.27 870.88,-24.64"/>
</g>
<!-- b_fd -->
<g id="node11" class="node">
<title>b_fd</title>
<ellipse fill="white" stroke="black" cx="804.31" cy="-328.5" rx="27.81" ry="18"/>
<text xml:space="preserve" text-anchor="middle" x="804.31" y="-323.45" font-family="Times,serif" font-size="14.00">b_fd</text>
</g>
<!-- b_fd&#45;&gt;obs -->
<g id="edge23" class="edge">
<title>b_fd&#45;&gt;obs</title>
<path fill="none" stroke="black" d="M802.54,-310.11C798.67,-266.61 791.65,-149.66 819.86,-45.9"/>
<polygon fill="black" stroke="black" points="823.19,-46.97 822.57,-36.39 816.46,-45.04 823.19,-46.97"/>
</g>
<!-- b_feat_depth -->
<g id="node12" class="node">
<title>b_feat_depth</title>
<ellipse fill="white" stroke="black" cx="909.31" cy="-328.5" rx="59.03" ry="18"/>
<text xml:space="preserve" text-anchor="middle" x="909.31" y="-323.45" font-family="Times,serif" font-size="14.00">b_feat_depth</text>
</g>
<!-- b_feat_depth&#45;&gt;obs -->
<g id="edge24" class="edge">
<title>b_feat_depth&#45;&gt;obs</title>
<path fill="none" stroke="black" d="M896.65,-310.6C884.36,-293.23 866.3,-264.94 857.31,-237.5 835.84,-171.98 832.72,-90.12 832.74,-47.61"/>
<polygon fill="black" stroke="black" points="836.24,-47.76 832.81,-37.74 829.24,-47.71 836.24,-47.76"/>
</g>
<!-- b_disp_depth -->
<g id="node13" class="node">
<title>b_disp_depth</title>
<ellipse fill="white" stroke="black" cx="387.31" cy="-328.5" rx="60.56" ry="18"/>
<text xml:space="preserve" text-anchor="middle" x="387.31" y="-323.45" font-family="Times,serif" font-size="14.00">b_disp_depth</text>
</g>
<!-- b_disp_depth&#45;&gt;obs -->
<g id="edge25" class="edge">
<title>b_disp_depth&#45;&gt;obs</title>
<path fill="none" stroke="black" d="M393.5,-310.24C412.86,-259.14 477.58,-108.12 587.31,-44 621.53,-24 734.41,-19.85 794.64,-19.08"/>
<polygon fill="black" stroke="black" points="794.47,-22.58 804.43,-18.99 794.4,-15.59 794.47,-22.58"/>
</g>
<!-- b_sib_feat -->
<g id="node14" class="node">
<title>b_sib_feat</title>
<ellipse fill="white" stroke="black" cx="515.31" cy="-328.5" rx="49.3" ry="18"/>
<text xml:space="preserve" text-anchor="middle" x="515.31" y="-323.45" font-family="Times,serif" font-size="14.00">b_sib_feat</text>
</g>
<!-- b_sib_feat&#45;&gt;obs -->
<g id="edge26" class="edge">
<title>b_sib_feat&#45;&gt;obs</title>
<path fill="none" stroke="black" d="M519.67,-310.26C533.4,-259.83 580.77,-111.94 679.31,-44 697.58,-31.4 755.6,-24.68 794.97,-21.48"/>
<polygon fill="black" stroke="black" points="795.06,-24.99 804.77,-20.74 794.53,-18.01 795.06,-24.99"/>
</g>
<!-- b_sib_disp -->
<g id="node15" class="node">
<title>b_sib_disp</title>
<ellipse fill="white" stroke="black" cx="633.31" cy="-328.5" rx="50.84" ry="18"/>
<text xml:space="preserve" text-anchor="middle" x="633.31" y="-323.45" font-family="Times,serif" font-size="14.00">b_sib_disp</text>
</g>
<!-- b_sib_disp&#45;&gt;obs -->
<g id="edge27" class="edge">
<title>b_sib_disp&#45;&gt;obs</title>
<path fill="none" stroke="black" d="M635.3,-310.25C641.92,-261.07 667.63,-118.88 750.31,-44 762.69,-32.78 779.95,-26.59 795.52,-23.18"/>
<polygon fill="black" stroke="black" points="795.79,-26.69 804.98,-21.43 794.51,-19.81 795.79,-26.69"/>
</g>
<!-- conc -->
<g id="node16" class="node">
<title>conc</title>
<ellipse fill="white" stroke="black" cx="730.31" cy="-328.5" rx="28.32" ry="18"/>
<text xml:space="preserve" text-anchor="middle" x="730.31" y="-323.45" font-family="Times,serif" font-size="14.00">conc</text>
</g>
<!-- conc&#45;&gt;obs -->
<g id="edge28" class="edge">
<title>conc&#45;&gt;obs</title>
<path fill="none" stroke="black" d="M730.38,-310.21C731.39,-263.26 739.62,-131.1 798.31,-44 799.91,-41.62 801.83,-39.38 803.92,-37.31"/>
<polygon fill="black" stroke="black" points="805.97,-40.16 811.45,-31.09 801.51,-34.76 805.97,-40.16"/>
</g>
<!-- gamma_offdiag_decentered&#45;&gt;gamma_offdiag -->
<g id="edge14" class="edge">
<title>gamma_offdiag_decentered&#45;&gt;gamma_offdiag</title>
<path fill="none" stroke="black" d="M158.41,-310.14C162,-290.08 167.95,-256.8 172.22,-232.95"/>
<polygon fill="black" stroke="black" points="175.64,-233.72 173.95,-223.26 168.75,-232.49 175.64,-233.72"/>
</g>
<!-- gamma_offdiag&#45;&gt;gamma -->
<g id="edge15" class="edge">
<title>gamma_offdiag&#45;&gt;gamma</title>
<path fill="none" stroke="black" d="M201.61,-186.33C218.22,-175.29 240.38,-160.55 258.27,-148.65"/>
<polygon fill="black" stroke="black" points="260.05,-151.66 266.44,-143.21 256.18,-145.83 260.05,-151.66"/>
</g>
<!-- level0 -->
<g id="node19" class="node">
<title>level0</title>
<ellipse fill="white" stroke="black" cx="1046.31" cy="-203.5" rx="33.44" ry="18"/>
<text xml:space="preserve" text-anchor="middle" x="1046.31" y="-198.45" font-family="Times,serif" font-size="14.00">level0</text>
</g>
<!-- level0&#45;&gt;obs -->
<g id="edge16" class="edge">
<title>level0&#45;&gt;obs</title>
<path fill="none" stroke="black" d="M1042.28,-185.19C1033.61,-152.07 1009.92,-79.87 961.31,-44 947.31,-33.67 904.02,-26.74 871.63,-22.84"/>
<polygon fill="black" stroke="black" points="872.1,-19.37 861.77,-21.72 871.3,-26.33 872.1,-19.37"/>
</g>
<!-- drift_scale -->
<g id="node20" class="node">
<title>drift_scale</title>
<ellipse fill="white" stroke="black" cx="1308.31" cy="-203.5" rx="49.82" ry="18"/>
<text xml:space="preserve" text-anchor="middle" x="1308.31" y="-198.45" font-family="Times,serif" font-size="14.00">drift_scale</text>
</g>
<!-- drift -->
<g id="node22" class="node">
<title>drift</title>
<ellipse fill="white" stroke="black" stroke-dasharray="5,2" cx="1169.31" cy="-127" rx="27" ry="18"/>
<text xml:space="preserve" text-anchor="middle" x="1169.31" y="-121.95" font-family="Times,serif" font-size="14.00">drift</text>
</g>
<!-- drift_scale&#45;&gt;drift -->
<g id="edge1" class="edge">
<title>drift_scale&#45;&gt;drift</title>
<path fill="none" stroke="black" d="M1294.37,-185.97C1283.96,-174.79 1268.76,-160.71 1252.31,-153 1231.13,-143.08 1222.45,-152.51 1200.31,-145 1199.81,-144.83 1199.32,-144.66 1198.82,-144.47"/>
<polygon fill="black" stroke="black" points="1200.45,-141.37 1189.89,-140.49 1197.6,-147.76 1200.45,-141.37"/>
</g>
<!-- drift_decentered -->
<g id="node21" class="node">
<title>drift_decentered</title>
<ellipse fill="white" stroke="black" cx="1169.31" cy="-203.5" rx="71.31" ry="18"/>
<text xml:space="preserve" text-anchor="middle" x="1169.31" y="-198.45" font-family="Times,serif" font-size="14.00">drift_decentered</text>
</g>
<!-- drift_decentered&#45;&gt;drift -->
<g id="edge2" class="edge">
<title>drift_decentered&#45;&gt;drift</title>
<path fill="none" stroke="black" d="M1169.31,-185.22C1169.31,-176.82 1169.31,-166.49 1169.31,-156.93"/>
<polygon fill="black" stroke="black" points="1172.81,-156.96 1169.31,-146.96 1165.81,-156.96 1172.81,-156.96"/>
</g>
<!-- drift&#45;&gt;obs -->
<g id="edge17" class="edge">
<title>drift&#45;&gt;obs</title>
<path fill="none" stroke="black" d="M1168.03,-108.7C1165.62,-89.53 1158.61,-59.29 1138.31,-44 1117.47,-28.3 949.06,-21.98 871.8,-19.88"/>
<polygon fill="black" stroke="black" points="872.25,-16.39 862.16,-19.63 872.07,-23.39 872.25,-16.39"/>
</g>
<!-- eps_decentered&#45;&gt;eps -->
<g id="edge9" class="edge">
<title>eps_decentered&#45;&gt;eps</title>
<path fill="none" stroke="black" d="M1444.31,-185.22C1444.31,-176.82 1444.31,-166.49 1444.31,-156.93"/>
<polygon fill="black" stroke="black" points="1447.81,-156.96 1444.31,-146.96 1440.81,-156.96 1447.81,-156.96"/>
</g>
<!-- eps&#45;&gt;obs -->
<g id="edge19" class="edge">
<title>eps&#45;&gt;obs</title>
<path fill="none" stroke="black" d="M1424.09,-114.58C1389.93,-95.95 1318.1,-59.52 1252.31,-44 1180.7,-27.11 961.35,-21.31 871.9,-19.61"/>
<polygon fill="black" stroke="black" points="872.23,-16.12 862.17,-19.44 872.11,-23.12 872.23,-16.12"/>
</g>
<!-- distribution_description_node -->
<g id="node25" class="node">
<title>distribution_description_node</title>
<text xml:space="preserve" text-anchor="start" x="342.68" y="-769.2" font-family="Times,serif" font-size="14.00">centered_eps ~ Uniform</text>
<text xml:space="preserve" text-anchor="start" x="342.68" y="-752.7" font-family="Times,serif" font-size="14.00">centered_gamma ~ Uniform</text>
<text xml:space="preserve" text-anchor="start" x="342.68" y="-736.2" font-family="Times,serif" font-size="14.00">level0 ~ Normal</text>
<text xml:space="preserve" text-anchor="start" x="342.68" y="-719.7" font-family="Times,serif" font-size="14.00">drift_scale ~ LogNormal</text>
<text xml:space="preserve" text-anchor="start" x="342.68" y="-703.2" font-family="Times,serif" font-size="14.00">drift_decentered ~ Normal</text>
<text xml:space="preserve" text-anchor="start" x="342.68" y="-686.7" font-family="Times,serif" font-size="14.00">drift ~ Deterministic</text>
<text xml:space="preserve" text-anchor="start" x="342.68" y="-670.2" font-family="Times,serif" font-size="14.00">beta_s ~ Normal</text>
<text xml:space="preserve" text-anchor="start" x="342.68" y="-653.7" font-family="Times,serif" font-size="14.00">eps_prod ~ Normal</text>
<text xml:space="preserve" text-anchor="start" x="342.68" y="-637.2" font-family="Times,serif" font-size="14.00">eps_scale ~ HalfNormal</text>
<text xml:space="preserve" text-anchor="start" x="342.68" y="-620.7" font-family="Times,serif" font-size="14.00">eps_decentered ~ Normal</text>
<text xml:space="preserve" text-anchor="start" x="342.68" y="-604.2" font-family="Times,serif" font-size="14.00">eps ~ Deterministic</text>
<text xml:space="preserve" text-anchor="start" x="342.68" y="-587.7" font-family="Times,serif" font-size="14.00">cross_scale ~ HalfNormal</text>
<text xml:space="preserve" text-anchor="start" x="342.68" y="-571.2" font-family="Times,serif" font-size="14.00">gamma_offdiag_decentered ~ Normal</text>
<text xml:space="preserve" text-anchor="start" x="342.68" y="-554.7" font-family="Times,serif" font-size="14.00">gamma_offdiag ~ Deterministic</text>
<text xml:space="preserve" text-anchor="start" x="342.68" y="-538.2" font-family="Times,serif" font-size="14.00">gamma ~ Deterministic</text>
<text xml:space="preserve" text-anchor="start" x="342.68" y="-521.7" font-family="Times,serif" font-size="14.00">b_feat ~ Normal</text>
<text xml:space="preserve" text-anchor="start" x="342.68" y="-505.2" font-family="Times,serif" font-size="14.00">b_disp ~ Normal</text>
<text xml:space="preserve" text-anchor="start" x="342.68" y="-488.7" font-family="Times,serif" font-size="14.00">b_fd ~ Normal</text>
<text xml:space="preserve" text-anchor="start" x="342.68" y="-472.2" font-family="Times,serif" font-size="14.00">b_feat_depth ~ Normal</text>
<text xml:space="preserve" text-anchor="start" x="342.68" y="-455.7" font-family="Times,serif" font-size="14.00">b_disp_depth ~ Normal</text>
<text xml:space="preserve" text-anchor="start" x="342.68" y="-439.2" font-family="Times,serif" font-size="14.00">b_sib_feat ~ Normal</text>
<text xml:space="preserve" text-anchor="start" x="342.68" y="-422.7" font-family="Times,serif" font-size="14.00">b_sib_disp ~ Normal</text>
<text xml:space="preserve" text-anchor="start" x="342.68" y="-406.2" font-family="Times,serif" font-size="14.00">conc ~ LogNormal</text>
<text xml:space="preserve" text-anchor="start" x="342.68" y="-389.7" font-family="Times,serif" font-size="14.00">obs ~ NegativeBinomial2</text>
</g>
</g>
</svg>
