<?xml version="1.0" encoding="UTF-8" standalone="no"?>
<!DOCTYPE svg PUBLIC "-//W3C//DTD SVG 1.1//EN"
 "http://www.w3.org/Graphics/SVG/1.1/DTD/svg11.dtd">
<!-- Generated by graphviz version 15.0.0 (20260523.1842)
 -->
<!-- Pages: 1 -->
<svg width="1037pt" height="358pt"
 viewBox="0.00 0.00 1037.00 358.00" xmlns="http://www.w3.org/2000/svg" xmlns:xlink="http://www.w3.org/1999/xlink">
<g id="graph0" class="graph" transform="scale(1 1) rotate(0) translate(4 354)">
<polygon fill="white" stroke="none" points="-4,4 -4,-354 1033.29,-354 1033.29,4 -4,4"/>
<g id="clust1" class="cluster">
<title>cluster_basis</title>
<polygon fill="none" stroke="black" points="346.16,-196.5 346.16,-273 416.16,-273 416.16,-196.5 346.16,-196.5"/>
<text xml:space="preserve" text-anchor="middle" x="394.66" y="-203.7" font-family="Times,serif" font-size="14.00">basis</text>
</g>
<!-- intercept -->
<g id="node1" class="node">
<title>intercept</title>
<ellipse fill="white" stroke="black" cx="43.16" cy="-90" rx="43.16" ry="18"/>
<text xml:space="preserve" text-anchor="middle" x="43.16" y="-84.95" font-family="Times,serif" font-size="14.00">intercept</text>
</g>
<!-- obs -->
<g id="node11" class="node">
<title>obs</title>
<ellipse fill="grey" stroke="black" cx="268.16" cy="-18" rx="27" ry="18"/>
<text xml:space="preserve" text-anchor="middle" x="268.16" y="-12.95" font-family="Times,serif" font-size="14.00">obs</text>
</g>
<!-- intercept&#45;&gt;obs -->
<g id="edge6" class="edge">
<title>intercept&#45;&gt;obs</title>
<path fill="none" stroke="black" d="M76.51,-78.24C83.02,-76.16 89.8,-74 96.16,-72 143.43,-57.14 198.14,-40.35 232.93,-29.73"/>
<polygon fill="black" stroke="black" points="233.93,-33.08 242.48,-26.81 231.89,-26.39 233.93,-33.08"/>
</g>
<!-- alpha -->
<g id="node2" class="node">
<title>alpha</title>
<ellipse fill="white" stroke="black" cx="173.16" cy="-247" rx="30.88" ry="18"/>
<text xml:space="preserve" text-anchor="middle" x="173.16" y="-241.95" font-family="Times,serif" font-size="14.00">alpha</text>
</g>
<!-- beta_temperature -->
<g id="node6" class="node">
<title>beta_temperature</title>
<ellipse fill="white" stroke="black" stroke-dasharray="5,2" cx="328.16" cy="-90" rx="75.41" ry="18"/>
<text xml:space="preserve" text-anchor="middle" x="328.16" y="-84.95" font-family="Times,serif" font-size="14.00">beta_temperature</text>
</g>
<!-- alpha&#45;&gt;beta_temperature -->
<g id="edge1" class="edge">
<title>alpha&#45;&gt;beta_temperature</title>
<path fill="none" stroke="black" d="M175.85,-228.72C180.13,-206.54 190.45,-168.07 213.16,-144 228.25,-128.01 249.11,-116.42 268.92,-108.24"/>
<polygon fill="black" stroke="black" points="269.99,-111.58 278.05,-104.7 267.46,-105.05 269.99,-111.58"/>
</g>
<!-- length_scale -->
<g id="node3" class="node">
<title>length_scale</title>
<ellipse fill="white" stroke="black" cx="279.16" cy="-247" rx="56.98" ry="18"/>
<text xml:space="preserve" text-anchor="middle" x="279.16" y="-241.95" font-family="Times,serif" font-size="14.00">length_scale</text>
</g>
<!-- length_scale&#45;&gt;beta_temperature -->
<g id="edge2" class="edge">
<title>length_scale&#45;&gt;beta_temperature</title>
<path fill="none" stroke="black" d="M284.59,-228.82C292.98,-202.28 309.18,-151.06 319.28,-119.08"/>
<polygon fill="black" stroke="black" points="322.57,-120.29 322.25,-109.7 315.9,-118.18 322.57,-120.29"/>
</g>
<!-- scale -->
<g id="node4" class="node">
<title>scale</title>
<ellipse fill="white" stroke="black" cx="134.16" cy="-90" rx="29.34" ry="18"/>
<text xml:space="preserve" text-anchor="middle" x="134.16" y="-84.95" font-family="Times,serif" font-size="14.00">scale</text>
</g>
<!-- scale&#45;&gt;obs -->
<g id="edge7" class="edge">
<title>scale&#45;&gt;obs</title>
<path fill="none" stroke="black" d="M155.99,-77.6C178.05,-66.07 212.35,-48.16 237.21,-35.17"/>
<polygon fill="black" stroke="black" points="238.64,-38.37 245.89,-30.64 235.4,-32.17 238.64,-38.37"/>
</g>
<!-- nu -->
<g id="node5" class="node">
<title>nu</title>
<ellipse fill="white" stroke="black" cx="208.16" cy="-90" rx="27" ry="18"/>
<text xml:space="preserve" text-anchor="middle" x="208.16" y="-84.95" font-family="Times,serif" font-size="14.00">nu</text>
</g>
<!-- nu&#45;&gt;obs -->
<g id="edge8" class="edge">
<title>nu&#45;&gt;obs</title>
<path fill="none" stroke="black" d="M221.18,-73.81C228.97,-64.73 239.02,-53 247.83,-42.72"/>
<polygon fill="black" stroke="black" points="250.33,-45.18 254.18,-35.31 245.02,-40.62 250.33,-45.18"/>
</g>
<!-- beta_temperature&#45;&gt;obs -->
<g id="edge9" class="edge">
<title>beta_temperature&#45;&gt;obs</title>
<path fill="none" stroke="black" d="M313.64,-72.05C305.99,-63.13 296.5,-52.06 288.16,-42.33"/>
<polygon fill="black" stroke="black" points="291.07,-40.35 281.91,-35.04 285.76,-44.91 291.07,-40.35"/>
</g>
<!-- scale_hour_of_day -->
<g id="node7" class="node">
<title>scale_hour_of_day</title>
<ellipse fill="white" stroke="black" cx="507.16" cy="-247" rx="81.04" ry="18"/>
<text xml:space="preserve" text-anchor="middle" x="507.16" y="-241.95" font-family="Times,serif" font-size="14.00">scale_hour_of_day</text>
</g>
<!-- hour_of_day_effect -->
<g id="node8" class="node">
<title>hour_of_day_effect</title>
<ellipse fill="white" stroke="black" cx="505.16" cy="-90" rx="83.6" ry="18"/>
<text xml:space="preserve" text-anchor="middle" x="505.16" y="-84.95" font-family="Times,serif" font-size="14.00">hour_of_day_effect</text>
</g>
<!-- scale_hour_of_day&#45;&gt;hour_of_day_effect -->
<g id="edge4" class="edge">
<title>scale_hour_of_day&#45;&gt;hour_of_day_effect</title>
<path fill="none" stroke="black" d="M506.94,-228.52C506.59,-201.98 505.94,-151.26 505.53,-119.38"/>
<polygon fill="black" stroke="black" points="509.03,-119.65 505.4,-109.69 502.03,-119.74 509.03,-119.65"/>
</g>
<!-- hour_of_day_effect&#45;&gt;obs -->
<g id="edge10" class="edge">
<title>hour_of_day_effect&#45;&gt;obs</title>
<path fill="none" stroke="black" d="M457.2,-74.83C411.68,-61.39 344.32,-41.49 303.5,-29.44"/>
<polygon fill="black" stroke="black" points="304.52,-26.09 293.94,-26.61 302.53,-32.8 304.52,-26.09"/>
</g>
<!-- scale_day_of_week -->
<g id="node9" class="node">
<title>scale_day_of_week</title>
<ellipse fill="white" stroke="black" cx="693.16" cy="-247" rx="83.6" ry="18"/>
<text xml:space="preserve" text-anchor="middle" x="693.16" y="-241.95" font-family="Times,serif" font-size="14.00">scale_day_of_week</text>
</g>
<!-- day_of_week_effect -->
<g id="node10" class="node">
<title>day_of_week_effect</title>
<ellipse fill="white" stroke="black" cx="693.16" cy="-90" rx="86.15" ry="18"/>
<text xml:space="preserve" text-anchor="middle" x="693.16" y="-84.95" font-family="Times,serif" font-size="14.00">day_of_week_effect</text>
</g>
<!-- scale_day_of_week&#45;&gt;day_of_week_effect -->
<g id="edge5" class="edge">
<title>scale_day_of_week&#45;&gt;day_of_week_effect</title>
<path fill="none" stroke="black" d="M693.16,-228.52C693.16,-201.98 693.16,-151.26 693.16,-119.38"/>
<polygon fill="black" stroke="black" points="696.66,-119.69 693.16,-109.69 689.66,-119.69 696.66,-119.69"/>
</g>
<!-- day_of_week_effect&#45;&gt;obs -->
<g id="edge11" class="edge">
<title>day_of_week_effect&#45;&gt;obs</title>
<path fill="none" stroke="black" d="M629.57,-77.46C619.08,-75.6 608.32,-73.72 598.16,-72 492.24,-54.02 366.91,-34.32 305.66,-24.8"/>
<polygon fill="black" stroke="black" points="306.2,-21.34 295.78,-23.27 305.12,-28.26 306.2,-21.34"/>
</g>
<!-- beta -->
<g id="node12" class="node">
<title>beta</title>
<ellipse fill="white" stroke="black" cx="381.16" cy="-247" rx="27" ry="18"/>
<text xml:space="preserve" text-anchor="middle" x="381.16" y="-241.95" font-family="Times,serif" font-size="14.00">beta</text>
</g>
<!-- beta&#45;&gt;beta_temperature -->
<g id="edge3" class="edge">
<title>beta&#45;&gt;beta_temperature</title>
<path fill="none" stroke="black" d="M375.39,-229.12C366.36,-202.7 348.78,-151.31 337.81,-119.21"/>
<polygon fill="black" stroke="black" points="341.13,-118.1 334.58,-109.77 334.5,-120.36 341.13,-118.1"/>
</g>
<!-- distribution_description_node -->
<g id="node13" class="node">
<title>distribution_description_node</title>
<text xml:space="preserve" text-anchor="start" x="803.04" y="-332.7" font-family="Times,serif" font-size="14.00">intercept ~ Normal</text>
<text xml:space="preserve" text-anchor="start" x="803.04" y="-316.2" font-family="Times,serif" font-size="14.00">alpha ~ InverseGamma</text>
<text xml:space="preserve" text-anchor="start" x="803.04" y="-299.7" font-family="Times,serif" font-size="14.00">length_scale ~ InverseGamma</text>
<text xml:space="preserve" text-anchor="start" x="803.04" y="-283.2" font-family="Times,serif" font-size="14.00">scale ~ HalfNormal</text>
<text xml:space="preserve" text-anchor="start" x="803.04" y="-266.7" font-family="Times,serif" font-size="14.00">nu ~ Gamma</text>
<text xml:space="preserve" text-anchor="start" x="803.04" y="-250.2" font-family="Times,serif" font-size="14.00">beta ~ Normal</text>
<text xml:space="preserve" text-anchor="start" x="803.04" y="-233.7" font-family="Times,serif" font-size="14.00">beta_temperature ~ Deterministic</text>
<text xml:space="preserve" text-anchor="start" x="803.04" y="-217.2" font-family="Times,serif" font-size="14.00">scale_hour_of_day ~ HalfNormal</text>
<text xml:space="preserve" text-anchor="start" x="803.04" y="-200.7" font-family="Times,serif" font-size="14.00">hour_of_day_effect ~ ZeroSumNormal</text>
<text xml:space="preserve" text-anchor="start" x="803.04" y="-184.2" font-family="Times,serif" font-size="14.00">scale_day_of_week ~ HalfNormal</text>
<text xml:space="preserve" text-anchor="start" x="803.04" y="-167.7" font-family="Times,serif" font-size="14.00">day_of_week_effect ~ ZeroSumNormal</text>
<text xml:space="preserve" text-anchor="start" x="803.04" y="-151.2" font-family="Times,serif" font-size="14.00">obs ~ StudentT</text>
</g>
</g>
</svg>
