<?xml version="1.0" encoding="UTF-8" standalone="no"?>
<!DOCTYPE svg PUBLIC "-//W3C//DTD SVG 1.1//EN"
 "http://www.w3.org/Graphics/SVG/1.1/DTD/svg11.dtd">
<!-- Generated by graphviz version 15.0.0 (20260523.1842)
 -->
<!-- Pages: 1 -->
<svg width="919pt" height="363pt"
 viewBox="0.00 0.00 919.00 363.00" xmlns="http://www.w3.org/2000/svg" xmlns:xlink="http://www.w3.org/1999/xlink">
<g id="graph0" class="graph" transform="scale(1 1) rotate(0) translate(4 358.5)">
<polygon fill="white" stroke="none" points="-4,4 -4,-358.5 915.16,-358.5 915.16,4 -4,4"/>
<g id="clust1" class="cluster">
<title>cluster_basis</title>
<polygon fill="none" stroke="black" points="833.16,-44 833.16,-120.5 903.16,-120.5 903.16,-44 833.16,-44"/>
<text xml:space="preserve" text-anchor="middle" x="881.66" y="-51.2" font-family="Times,serif" font-size="14.00">basis</text>
</g>
<!-- intercept -->
<g id="node1" class="node">
<title>intercept</title>
<ellipse fill="white" stroke="black" cx="43.16" cy="-94.5" rx="43.16" ry="18"/>
<text xml:space="preserve" text-anchor="middle" x="43.16" y="-89.45" font-family="Times,serif" font-size="14.00">intercept</text>
</g>
<!-- obs -->
<g id="node11" class="node">
<title>obs</title>
<ellipse fill="grey" stroke="black" cx="431.16" cy="-18" rx="27" ry="18"/>
<text xml:space="preserve" text-anchor="middle" x="431.16" y="-12.95" font-family="Times,serif" font-size="14.00">obs</text>
</g>
<!-- intercept&#45;&gt;obs -->
<g id="edge6" class="edge">
<title>intercept&#45;&gt;obs</title>
<path fill="none" stroke="black" d="M55.59,-77.06C65.27,-65.62 79.79,-51.17 96.16,-44 148.33,-21.15 315.87,-18.61 392.39,-18.7"/>
<polygon fill="black" stroke="black" points="392.34,-22.2 402.35,-18.72 392.36,-15.2 392.34,-22.2"/>
</g>
<!-- alpha -->
<g id="node2" class="node">
<title>alpha</title>
<ellipse fill="white" stroke="black" cx="660.16" cy="-94.5" rx="30.88" ry="18"/>
<text xml:space="preserve" text-anchor="middle" x="660.16" y="-89.45" font-family="Times,serif" font-size="14.00">alpha</text>
</g>
<!-- beta_temperature -->
<g id="node6" class="node">
<title>beta_temperature</title>
<ellipse fill="white" stroke="black" stroke-dasharray="5,2" cx="766.16" cy="-18" rx="75.41" ry="18"/>
<text xml:space="preserve" text-anchor="middle" x="766.16" y="-12.95" font-family="Times,serif" font-size="14.00">beta_temperature</text>
</g>
<!-- alpha&#45;&gt;beta_temperature -->
<g id="edge1" class="edge">
<title>alpha&#45;&gt;beta_temperature</title>
<path fill="none" stroke="black" d="M669.95,-77.34C677.15,-66.63 687.81,-52.94 700.16,-44 703.34,-41.7 706.75,-39.59 710.28,-37.65"/>
<polygon fill="black" stroke="black" points="711.71,-40.85 719.14,-33.3 708.62,-34.57 711.71,-40.85"/>
</g>
<!-- alpha&#45;&gt;obs -->
<g id="edge7" class="edge">
<title>alpha&#45;&gt;obs</title>
<path fill="none" stroke="black" d="M651.28,-76.88C644.35,-65.66 633.65,-51.57 620.16,-44 595.15,-29.96 517.38,-23.48 469.75,-20.75"/>
<polygon fill="black" stroke="black" points="470.03,-17.26 459.85,-20.21 469.65,-24.25 470.03,-17.26"/>
</g>
<!-- length_scale -->
<g id="node3" class="node">
<title>length_scale</title>
<ellipse fill="white" stroke="black" cx="766.16" cy="-94.5" rx="56.98" ry="18"/>
<text xml:space="preserve" text-anchor="middle" x="766.16" y="-89.45" font-family="Times,serif" font-size="14.00">length_scale</text>
</g>
<!-- length_scale&#45;&gt;beta_temperature -->
<g id="edge2" class="edge">
<title>length_scale&#45;&gt;beta_temperature</title>
<path fill="none" stroke="black" d="M766.16,-76.22C766.16,-67.82 766.16,-57.49 766.16,-47.93"/>
<polygon fill="black" stroke="black" points="769.66,-47.96 766.16,-37.96 762.66,-47.96 769.66,-47.96"/>
</g>
<!-- length_scale&#45;&gt;obs -->
<g id="edge8" class="edge">
<title>length_scale&#45;&gt;obs</title>
<path fill="none" stroke="black" d="M749.58,-76.91C737.11,-65.55 719.01,-51.27 700.16,-44 659.07,-28.15 533.49,-22.1 469.51,-20"/>
<polygon fill="black" stroke="black" points="469.93,-16.51 459.82,-19.7 469.71,-23.51 469.93,-16.51"/>
</g>
<!-- scale -->
<g id="node4" class="node">
<title>scale</title>
<ellipse fill="white" stroke="black" cx="134.16" cy="-94.5" rx="29.34" ry="18"/>
<text xml:space="preserve" text-anchor="middle" x="134.16" y="-89.45" font-family="Times,serif" font-size="14.00">scale</text>
</g>
<!-- scale&#45;&gt;obs -->
<g id="edge9" class="edge">
<title>scale&#45;&gt;obs</title>
<path fill="none" stroke="black" d="M142.33,-76.75C148.78,-65.47 158.9,-51.35 172.16,-44 209,-23.58 329.6,-19.64 392.39,-19.01"/>
<polygon fill="black" stroke="black" points="392.28,-22.51 402.25,-18.94 392.23,-15.51 392.28,-22.51"/>
</g>
<!-- nu -->
<g id="node5" class="node">
<title>nu</title>
<ellipse fill="white" stroke="black" cx="208.16" cy="-94.5" rx="27" ry="18"/>
<text xml:space="preserve" text-anchor="middle" x="208.16" y="-89.45" font-family="Times,serif" font-size="14.00">nu</text>
</g>
<!-- nu&#45;&gt;obs -->
<g id="edge10" class="edge">
<title>nu&#45;&gt;obs</title>
<path fill="none" stroke="black" d="M215.77,-76.91C221.81,-65.71 231.38,-51.62 244.16,-44 268.54,-29.47 345.62,-23.15 392.87,-20.59"/>
<polygon fill="black" stroke="black" points="392.87,-24.1 402.68,-20.09 392.51,-17.11 392.87,-24.1"/>
</g>
<!-- scale_hour_of_day -->
<g id="node7" class="node">
<title>scale_hour_of_day</title>
<ellipse fill="white" stroke="black" cx="337.16" cy="-251.5" rx="81.04" ry="18"/>
<text xml:space="preserve" text-anchor="middle" x="337.16" y="-246.45" font-family="Times,serif" font-size="14.00">scale_hour_of_day</text>
</g>
<!-- hour_of_day_effect -->
<g id="node8" class="node">
<title>hour_of_day_effect</title>
<ellipse fill="white" stroke="black" cx="337.16" cy="-94.5" rx="83.6" ry="18"/>
<text xml:space="preserve" text-anchor="middle" x="337.16" y="-89.45" font-family="Times,serif" font-size="14.00">hour_of_day_effect</text>
</g>
<!-- scale_hour_of_day&#45;&gt;hour_of_day_effect -->
<g id="edge4" class="edge">
<title>scale_hour_of_day&#45;&gt;hour_of_day_effect</title>
<path fill="none" stroke="black" d="M337.16,-233.02C337.16,-206.48 337.16,-155.76 337.16,-123.88"/>
<polygon fill="black" stroke="black" points="340.66,-124.19 337.16,-114.19 333.66,-124.19 340.66,-124.19"/>
</g>
<!-- hour_of_day_effect&#45;&gt;obs -->
<g id="edge12" class="edge">
<title>hour_of_day_effect&#45;&gt;obs</title>
<path fill="none" stroke="black" d="M358.02,-76.97C372,-65.89 390.49,-51.23 405.39,-39.43"/>
<polygon fill="black" stroke="black" points="407.28,-42.4 412.94,-33.44 402.93,-36.91 407.28,-42.4"/>
</g>
<!-- scale_day_of_week -->
<g id="node9" class="node">
<title>scale_day_of_week</title>
<ellipse fill="white" stroke="black" cx="525.16" cy="-251.5" rx="83.6" ry="18"/>
<text xml:space="preserve" text-anchor="middle" x="525.16" y="-246.45" font-family="Times,serif" font-size="14.00">scale_day_of_week</text>
</g>
<!-- day_of_week_effect -->
<g id="node10" class="node">
<title>day_of_week_effect</title>
<ellipse fill="white" stroke="black" cx="525.16" cy="-94.5" rx="86.15" ry="18"/>
<text xml:space="preserve" text-anchor="middle" x="525.16" y="-89.45" font-family="Times,serif" font-size="14.00">day_of_week_effect</text>
</g>
<!-- scale_day_of_week&#45;&gt;day_of_week_effect -->
<g id="edge5" class="edge">
<title>scale_day_of_week&#45;&gt;day_of_week_effect</title>
<path fill="none" stroke="black" d="M525.16,-233.02C525.16,-206.48 525.16,-155.76 525.16,-123.88"/>
<polygon fill="black" stroke="black" points="528.66,-124.19 525.16,-114.19 521.66,-124.19 528.66,-124.19"/>
</g>
<!-- day_of_week_effect&#45;&gt;obs -->
<g id="edge13" class="edge">
<title>day_of_week_effect&#45;&gt;obs</title>
<path fill="none" stroke="black" d="M503.83,-76.59C489.84,-65.5 471.46,-50.94 456.69,-39.23"/>
<polygon fill="black" stroke="black" points="459.23,-36.78 449.22,-33.31 454.88,-42.26 459.23,-36.78"/>
</g>
<!-- beta -->
<g id="node12" class="node">
<title>beta</title>
<ellipse fill="white" stroke="black" cx="868.16" cy="-94.5" rx="27" ry="18"/>
<text xml:space="preserve" text-anchor="middle" x="868.16" y="-89.45" font-family="Times,serif" font-size="14.00">beta</text>
</g>
<!-- beta&#45;&gt;beta_temperature -->
<g id="edge3" class="edge">
<title>beta&#45;&gt;beta_temperature</title>
<path fill="none" stroke="black" d="M859.7,-77.32C853.37,-66.59 843.82,-52.9 832.16,-44 829.1,-41.66 825.79,-39.52 822.35,-37.56"/>
<polygon fill="black" stroke="black" points="824.22,-34.59 813.72,-33.21 821.07,-40.84 824.22,-34.59"/>
</g>
<!-- beta&#45;&gt;obs -->
<g id="edge11" class="edge">
<title>beta&#45;&gt;obs</title>
<path fill="none" stroke="black" d="M860.99,-77.08C855.05,-65.65 845.42,-51.2 832.16,-44 817.5,-36.03 698.82,-37.01 682.16,-36 606.85,-31.44 518.88,-25.29 469.63,-21.78"/>
<polygon fill="black" stroke="black" points="470,-18.3 459.78,-21.07 469.5,-25.28 470,-18.3"/>
</g>
<!-- distribution_description_node -->
<g id="node13" class="node">
<title>distribution_description_node</title>
<text xml:space="preserve" text-anchor="start" x="635.04" y="-337.2" font-family="Times,serif" font-size="14.00">intercept ~ Normal</text>
<text xml:space="preserve" text-anchor="start" x="635.04" y="-320.7" font-family="Times,serif" font-size="14.00">alpha ~ InverseGamma</text>
<text xml:space="preserve" text-anchor="start" x="635.04" y="-304.2" font-family="Times,serif" font-size="14.00">length_scale ~ InverseGamma</text>
<text xml:space="preserve" text-anchor="start" x="635.04" y="-287.7" font-family="Times,serif" font-size="14.00">scale ~ HalfNormal</text>
<text xml:space="preserve" text-anchor="start" x="635.04" y="-271.2" font-family="Times,serif" font-size="14.00">nu ~ Gamma</text>
<text xml:space="preserve" text-anchor="start" x="635.04" y="-254.7" font-family="Times,serif" font-size="14.00">beta ~ Normal</text>
<text xml:space="preserve" text-anchor="start" x="635.04" y="-238.2" font-family="Times,serif" font-size="14.00">beta_temperature ~ Deterministic</text>
<text xml:space="preserve" text-anchor="start" x="635.04" y="-221.7" font-family="Times,serif" font-size="14.00">scale_hour_of_day ~ HalfNormal</text>
<text xml:space="preserve" text-anchor="start" x="635.04" y="-205.2" font-family="Times,serif" font-size="14.00">hour_of_day_effect ~ ZeroSumNormal</text>
<text xml:space="preserve" text-anchor="start" x="635.04" y="-188.7" font-family="Times,serif" font-size="14.00">scale_day_of_week ~ HalfNormal</text>
<text xml:space="preserve" text-anchor="start" x="635.04" y="-172.2" font-family="Times,serif" font-size="14.00">day_of_week_effect ~ ZeroSumNormal</text>
<text xml:space="preserve" text-anchor="start" x="635.04" y="-155.7" font-family="Times,serif" font-size="14.00">obs ~ StudentT</text>
</g>
</g>
</svg>
